<svg width="24" height="24" viewBox="0 0 24 24" fill="none" xmlns="http://www.w3.org/2000/svg">
<g clip-path="url(#clip0_6_10807)">
<path d="M8.57366 6.08577L10.7166 7.28579L9.51654 5.14289L10.7166 3L8.57366 4.20002L6.43077 3L7.63079 5.14289L6.43077 7.28579L8.57366 6.08577ZM18.8595 14.4859L16.7167 13.2859L17.9167 15.4288L16.7167 17.5717L18.8595 16.3717L21.0024 17.5717L19.8024 15.4288L21.0024 13.2859L18.8595 14.4859ZM21.0024 3L18.8595 4.20002L16.7167 3L17.9167 5.14289L16.7167 7.28579L18.8595 6.08577L21.0024 7.28579L19.8024 5.14289L21.0024 3ZM14.4623 7.53436C14.128 7.20007 13.588 7.20007 13.2537 7.53436L3.25072 17.5374C2.91643 17.8717 2.91643 18.4117 3.25072 18.746L5.25647 20.7517C5.59076 21.086 6.13077 21.086 6.46506 20.7517L16.4595 10.7573C16.7938 10.423 16.7938 9.88297 16.4595 9.54868L14.4623 7.53436V7.53436ZM13.5795 12.2402L11.7623 10.423L13.8538 8.33152L15.6709 10.1487L13.5795 12.2402V12.2402Z" fill="white"/>
</g>
<defs>
<clipPath id="clip0_6_10807">
<rect width="24" height="24" fill="white"/>
</clipPath>
</defs>
</svg>
